<svg xmlns="http://www.w3.org/2000/svg" viewBox="0 0 200 200">
  <defs>
    <style>.a{fill:#fff;}.b{fill:#ecd615;}</style>
  </defs>
  <title>Sauce Logo</title>
  <path class="a" d="M77.65,116.45l3.45-4.9a31.31,31.31,0,0,0,19.17,6c7.45,0,11.17-3.17,11.17-6.9,0-3.36-1.82-5.73-13.81-8.17C86.18,100.1,80.37,96.2,80.37,89.56,80.37,82.48,86.64,77,98.72,77a33.14,33.14,0,0,1,17.81,5.64l-3.64,4.81a26.06,26.06,0,0,0-14.8-4.63c-7.54,0-10.18,3-10.18,6.36,0,3.81,3.82,5.45,12.81,7.36,14.72,3.17,18.26,6.91,18.26,13.63,0,7.17-7,13.16-19.62,13.16A38.73,38.73,0,0,1,77.65,116.45Z"/>
  <path class="b" d="M43,126.93c0-8,.82-10,.82-17.5,0-3.54-2.47-7-13.28-7.07V97.65c10.81-.1,13.28-3.54,13.28-7.08,0-5.72-.82-11.25-.82-17.51C43,63.72,48.37,61,59.91,61H65.5v4H60.72c-9.38,0-11.41,2.38-11.41,8.32,0,5.21.56,10.87.56,16.54,0,5.94-2,8.86-8.37,10v.37c6.34,1.1,8.37,4,8.37,10,0,6.21-.56,11-.56,16.54,0,5.94,2,8.32,11.41,8.32H65.5v4H59.91C48.37,139,43,136.28,43,126.93Z"/>
  <path class="b" d="M134.5,135h4.71c9.42,0,11.54-2.38,11.54-8.32,0-5.57-.55-10.33-.55-16.54,0-5.94,1.93-8.86,8.3-10v-.37c-6.37-1.09-8.3-4-8.3-10,0-5.66.55-11.33.55-16.54,0-5.94-2.12-8.31-11.54-8.31H134.5V61h5.61c11.48,0,16.9,2.72,16.9,12.06,0,6.26-.82,11.79-.82,17.51,0,3.54,2.47,7,13.31,7.08v4.71c-10.84.09-13.31,3.53-13.31,7.07,0,6.08.82,10.89.82,17.5,0,9.35-5.42,12.07-16.9,12.07H134.5Z"/>
</svg>
