<svg xmlns="http://www.w3.org/2000/svg" viewBox="0 0 800 524">
  <defs><style>.a{fill:#fff;}.b{fill:#ecd615;}.c{fill:#e5e5e5;}</style></defs>
  <title>Logo</title>
  <path class="a" d="M203.42,389.33l3.94-5.6a35.86,35.86,0,0,0,21.9,6.84c8.51,0,12.76-3.62,12.76-7.88,0-3.84-2.07-6.55-15.77-9.34-13.07-2.71-19.72-7.16-19.72-14.74,0-8.09,7.17-14.32,21-14.32a38,38,0,0,1,20.35,6.43l-4.16,5.5a29.8,29.8,0,0,0-16.91-5.28c-8.61,0-11.63,3.41-11.63,7.26,0,4.35,4.36,6.23,14.64,8.4,16.81,3.63,20.86,7.89,20.86,15.57,0,8.2-8,15-22.42,15A44.26,44.26,0,0,1,203.42,389.33Z"/><path class="a" d="M289,382.64c0-11.56,10.71-17.18,37.33-19.31-.22-7-3.72-12.92-13.69-12.92-6.67,0-13.25,3.17-18,6.14l-3.39-5.93c5.19-3.4,13.89-7.43,22.9-7.43,14.11,0,20.89,8.38,20.89,21.21V396h-7.1l-.75-7h-.31c-5.73,4.45-13,8.27-20.37,8.27C296.82,397.27,289,391.86,289,382.64Zm38,.26V369.61c-21.58,1.76-28.23,6-28.23,12.66,0,5.71,5.29,8.1,11.11,8.1S321.29,387.66,327,382.9Z"/><path class="a" d="M375,376.34V345h9v30.2c0,9.55,3.19,14.11,11.53,14.11,5.76,0,9.92-1.13,15.47-7.67l.07-36.64H419v50.43l-8,.16.05-6.06s-3.65,7.14-18.47,7.14C380.52,396.67,375,389.62,375,376.34Z"/><path class="a" d="M544.91,370.5c0-16.39,12.24-26.35,25.74-26.35,14.52,0,23,9.45,23,23.66a34.75,34.75,0,0,1-.42,5.19H553.53c1,11.41,9.13,17.23,19.61,17.23a27.49,27.49,0,0,0,15.36-4.78l3.11,5.6a34.57,34.57,0,0,1-19.51,6C556.94,397.07,544.91,387.32,544.91,370.5Zm8.82-3.5H585.9c-.73-10.38-6.43-15.46-15-15.46C562.56,351.54,555.29,357,553.73,367Z"/><path class="b" d="M141.24,401.23c0-9.1.94-11.37.94-20,0-4-2.82-8-15.18-8.07v-5.38c12.36-.11,15.18-4,15.18-8.07,0-6.52-.94-12.83-.94-20,0-10.65,6.18-13.76,19.37-13.76H167v5h-5.38c-10.55,0-12.83,2.68-12.83,9.39,0,5.88.62,12.27.62,18.66,0,6.71-2.28,10-9.41,11.24v.41c7.13,1.24,9.41,4.54,9.41,11.25,0,7-.62,12.37-.62,18.66,0,6.7,2.28,9.39,12.83,9.39H167v5h-6.39C147.42,415,141.24,411.9,141.24,401.23Z"/><path class="b" d="M459.14,370.86c0-16.92,12.87-26.57,28.12-26.57a25.62,25.62,0,0,1,18.37,7.37l-4.25,5.5c-4.16-3.63-8.51-5.81-13.8-5.81-11.63,0-19.62,7.88-19.62,19.51s7.78,19.3,19.41,19.3c6.22,0,11.41-2.8,15.56-6.33l3.84,5.5a30.05,30.05,0,0,1-20,7.88C471,397.21,459.14,387.56,459.14,370.86Z"/><path class="b" d="M633,410h5.29c10.6,0,13-2.69,13-9.39,0-6.29-.63-11.65-.63-18.66,0-6.71,2.18-10,9.35-11.25v-.41c-7.17-1.24-9.35-4.53-9.35-11.24,0-6.39.63-12.78.63-18.66,0-6.71-2.39-9.39-13-9.39H633v-5h6.41c13.12,0,19.32,3.11,19.32,13.76,0,7.15-1,13.46-1,20,0,4,2.83,8,15.22,8.07v5.38c-12.39.1-15.22,4-15.22,8.07,0,6.94,1,12.42,1,20,0,10.67-6.2,13.77-19.32,13.77H633Z"/><path class="c" d="M444.6,225c-1.49-17.49-13-29.24-14.31-34.1-3-3.21-5.66-6.88-9.5-9.08-.74-1.75-1.47-3-2.35-2.92-.59.05-.88.56-1.05,1.23a42.88,42.88,0,0,0-15.15-3.78c.74-8,1-17.11-1.44-17.53-4.39-.74-.23,11.18-8.8,10.74s-2.62-15.83-8.93-13.79.47,9.86.12,15.43S379.24,182,374.37,182c-1.37,0-1,.32-2.2-.36-2.21,11.54-14.41,25.3-16.77,46.16C350.34,293.23,452.64,286.45,444.6,225Z"/><path class="b" d="M409.84,148.31c-7.71,0-15.44-.06-23.15,0-5.57.08-9.3,1.78-9.1,7.26.52,13.57-11.89,24.28-3.67,27,4.62,1.56,8.91-5.86,9.27-11.38s-6.43-13.38-.12-15.43.35,13.35,8.93,13.79,4.41-11.48,8.8-10.74,0,29.19,0,29.19c0,8.89,4,15.95,8.82,16.11,13.82.46,6.08-24.9,8.82-25.22s9,23.14,13.6,10.5c1.66-4.54-8.27-20-10-30.86C420.68,149.85,418.61,148.31,409.84,148.31Z"/><path class="b" d="M396.26,109c-3.65,1.8-8.18,2.62-8.93,8H411.6c-.75-5.43-5.29-6.23-9-8Z"/><path class="b" d="M413.57,120c-4.7,0-9.42,0-14.12,0s-9.43,0-14.13,0c-2.21,0-3.93.35-4,3.1s1.52,3.25,3.82,3.23q14.31-.06,28.64,0c2.33,0,3.8-.62,3.75-3.29S415.76,119.92,413.57,120Z"/><path class="b" d="M413.89,129.37c-9.55.06-19.1,0-28.65,0-2.24,0-3.88.47-3.89,3.17s1.66,3.19,3.9,3.14c4.83,0,9.68,0,14.52,0s9.41,0,14.12,0c2.1,0,3.59-.45,3.67-2.94S416.26,129.37,413.89,129.37Z"/><path class="b" d="M413.57,138.82c-4.7.06-9.42,0-14.12,0s-9.43,0-14.13,0c-2.21,0-3.93.36-4,3.09s1.53,3.25,3.82,3.23q14.32-.06,28.64,0c2.33,0,3.8-.6,3.75-3.27S415.75,138.8,413.57,138.82Z"/><path class="a" d="M434.89,207.53a46.11,46.11,0,0,1-32.78,61,41.51,41.51,0,0,0,32.78-61Z"/><path class="a" d="M416.93,189.9c0,.14,0,.26,0,.42,0,6.72-3.62,12.18-8.07,12.18-.18,0-.33-.06-.49-.06a4.9,4.9,0,0,0,1.53.24c3.94,0,7.15-4.76,7.15-10.63A15.22,15.22,0,0,0,416.93,189.9Z"/><path class="a" d="M396.67,161.35c-.09,3.55-2.33,6.36-5.19,6.58a2.7,2.7,0,0,0,.41.08,5.19,5.19,0,0,0,5-5.32A5,5,0,0,0,396.67,161.35Z"/><path class="a" d="M429,183.66c2,3,1.74,6.54-.44,8.37.12-.07.25-.09.37-.17a5.17,5.17,0,0,0,1-7.24A5.5,5.5,0,0,0,429,183.66Z"/><path class="a" d="M380.46,166.35a16.28,16.28,0,0,1,.56,3.28c.37,6-2.43,11.14-6.32,11.76.15,0,.3,0,.44,0,3.78-.24,6.54-5.11,6.19-10.87A15,15,0,0,0,380.46,166.35Z"/><path class="a" d="M413.46,130h-.84c1.87,0,2.95.6,2.9,2.65s-1.24,2.37-2.89,2.35h.83c1.65,0,2.84-.36,2.9-2.35S415.33,130,413.46,130Z"/><path class="a" d="M413.46,121h-.84c1.87,0,2.95.6,2.9,2.65s-1.24,2.37-2.89,2.35h.83c1.65,0,2.84-.37,2.9-2.35S415.33,121,413.46,121Z"/><path class="a" d="M413.53,140h-.79c1.75,0,2.76.56,2.71,2.49s-1.16,2.19-2.69,2.17c.26,0,.52,0,.77,0,1.54,0,2.65-.36,2.71-2.19S415.28,140,413.53,140Z"/></svg>
