<svg xmlns="http://www.w3.org/2000/svg" viewBox="0 0 800 239">
  <defs>
    <style>.a{fill:#fff;}.b{fill:#ecd615;}</style>
  </defs>
  <title>Sauce</title>
  <path class="a" d="M158.91,142.45l4.82-6.86c7.12,5.08,15.38,8.38,26.82,8.38,10.42,0,15.63-4.44,15.63-9.66,0-4.69-2.54-8-19.31-11.43-16-3.31-24.15-8.77-24.15-18,0-9.91,8.77-17.54,25.67-17.54a46.4,46.4,0,0,1,24.91,7.88l-5.09,6.73a36.47,36.47,0,0,0-20.71-6.47c-10.54,0-14.24,4.18-14.24,8.9,0,5.33,5.34,7.62,17.93,10.28,20.59,4.45,25.54,9.66,25.54,19.07,0,10-9.78,18.42-27.45,18.42A54.26,54.26,0,0,1,158.91,142.45Z"/>
  <path class="a" d="M265.27,134.57c0-13.86,12.83-20.59,44.74-23.14-.26-8.38-4.46-15.49-16.4-15.49-8,0-15.89,3.8-21.61,7.36l-4.06-7.11c6.23-4.07,16.65-8.9,27.45-8.9,16.9,0,25,10,24.61,25.42V150h-8.09l-.89-8h-.38c-6.86,5.53-15.63,10.1-24.4,10.1C274.67,152.1,265.27,145.62,265.27,134.57Zm44.73,0V118.3c-26.43,2.16-34.57,7.37-34.57,15.51,0,7,6.48,9.91,13.6,9.91S303,140.41,310,134.57Z"/>
  <path class="a" d="M369,126.38V88h11v37c0,11.7,3.9,17.28,14.1,17.28,7,0,12.11-1.38,18.9-9.39L413.08,88H423v61.76L413,150l.06-7.42s-4.46,8.75-22.57,8.75C375.74,151.28,369,142.64,369,126.38Z"/>
  <path class="a" d="M577.12,119.94c0-20.07,15-32.27,31.52-32.27,17.79,0,28.21,11.57,28.21,29a42.14,42.14,0,0,1-.52,6.36H587.67c1.27,14,11.18,21.1,24,21.1,7.37,0,13.21-2.29,18.81-5.86l3.81,6.87a42.29,42.29,0,0,1-23.89,7.36C591.86,152.47,577.12,140.54,577.12,119.94Zm10.8-5.94h39.4c-.89-12.71-7.88-18.94-18.43-18.94C598.73,95.06,589.83,101.8,587.92,114Z"/>
  <path class="b" d="M83.45,157.14c0-11.15,1.15-13.93,1.15-24.46,0-4.94-3.46-9.76-18.6-9.88v-6.59c15.14-.13,18.6-4.94,18.6-9.89,0-8-1.15-15.71-1.15-24.46C83.45,68.8,91,65,107.18,65H115v6h-6.77c-13.29,0-16.16,3.29-16.16,11.53,0,7.21.78,15.06.78,22.91,0,8.23-2.87,12.28-11.85,13.8v.51c9,1.52,11.85,5.57,11.85,13.8,0,8.61-.78,15.19-.78,22.92,0,8.23,2.87,11.53,16.16,11.53H115v6h-7.82C91,174,83.45,170.2,83.45,157.14Z"/>
  <path class="b" d="M472.07,119.83c0-20.72,15.77-32.54,34.44-32.54a31.42,31.42,0,0,1,22.5,9l-5.21,6.74c-5.08-4.45-10.42-7.11-16.9-7.11-14.24,0-24,9.65-24,23.89s9.53,23.63,23.77,23.63c7.62,0,14-3.42,19.06-7.75l4.69,6.74a36.8,36.8,0,0,1-24.52,9.65C486.56,152.1,472.07,140.29,472.07,119.83Z"/>
  <path class="b" d="M686,168h6.27c12.56,0,15.39-3.3,15.39-11.53,0-7.73-.74-14.31-.74-22.92,0-8.23,2.58-12.28,11.08-13.8v-.51c-8.5-1.52-11.08-5.57-11.08-13.8,0-7.85.74-15.7.74-22.91,0-8.24-2.83-11.53-15.39-11.53H686V65h7.69c15.74,0,23.18,3.8,23.18,16.86,0,8.75-1.14,16.47-1.14,24.46,0,5,3.4,9.76,18.27,9.89v6.59c-14.87.12-18.27,4.94-18.27,9.88,0,8.49,1.14,15.21,1.14,24.46,0,13.06-7.44,16.86-23.18,16.86H686Z"/>
</svg>
